HIERARCHY
ROOT Hips
{
	OFFSET -0.179506 -22.333345 2.821913
	CHANNELS 6 Xposition Yposition Zposition Zrotation Yrotation Xrotation 
	JOINT LeftUpLeg
	{
		OFFSET 6.951974 -9.140623 -0.681533
		CHANNELS 3 Zrotation Yrotation Xrotation
		JOINT LeftLeg
		{
			OFFSET 3.427654 -37.519855 -0.449580
			CHANNELS 3 Zrotation Yrotation Xrotation
			JOINT LeftFoot
			{
				OFFSET -1.359570 -39.796059 -4.369333
				CHANNELS 3 Zrotation Yrotation Xrotation
				JOINT LeftToe
				{
					OFFSET 2.635814 -5.579078 11.928840
					CHANNELS 3 Zrotation Yrotation Xrotation
					End Site
					{
						OFFSET 0.000000 0.000000 0.000000
					}
				}
			}
		}
	}
	JOINT RightUpLeg
	{
		OFFSET -6.767048 -9.052170 -0.431982
		CHANNELS 3 Zrotation Yrotation Xrotation
		JOINT RightLeg
		{
			OFFSET -3.829005 -38.256897 -0.885003
			CHANNELS 3 Zrotation Yrotation Xrotation
			JOINT RightFoot
			{
				OFFSET 1.577377 -39.841461 -4.231180
				CHANNELS 3 Zrotation Yrotation Xrotation
				JOINT RightToe
				{
					OFFSET -2.537174 -4.814398 12.334795
					CHANNELS 3 Zrotation Yrotation Xrotation
					End Site
					{
						OFFSET 0.000000 0.000000 0.000000
					}
				}
			}
		}
	}
	JOINT Spine
	{
		OFFSET -0.253288 10.896323 -2.669631
		CHANNELS 3 Zrotation Yrotation Xrotation
		JOINT Spine1
		{
			OFFSET 0.548704 13.518043 0.109247
			CHANNELS 3 Zrotation Yrotation Xrotation
			JOINT Spine2
			{
				OFFSET 0.145701 5.292222 2.542457
				CHANNELS 3 Zrotation Yrotation Xrotation
				JOINT Neck
				{
					OFFSET -0.277840 21.387037 -4.285703
					CHANNELS 3 Zrotation Yrotation Xrotation
					JOINT Head
					{
						OFFSET 0.515184 6.496960 5.134897
						CHANNELS 3 Zrotation Yrotation Xrotation
						End Site
						{
							OFFSET 0.000000 0.000000 0.000000
						}
					}
				}
				JOINT LeftShoulder
				{
					OFFSET 7.884473 12.174932 -3.408961
					CHANNELS 3 Zrotation Yrotation Xrotation
					JOINT LeftArm
					{
						OFFSET 9.097692 3.046888 -0.886815
						CHANNELS 3 Zrotation Yrotation Xrotation
						JOINT LeftForeArm
						{
							OFFSET 25.961220 -1.277207 -2.745643
							CHANNELS 3 Zrotation Yrotation Xrotation
							JOINT LeftHand
							{
								OFFSET 24.923361 0.898606 -0.117091
								CHANNELS 3 Zrotation Yrotation Xrotation
								End Site
								{
									OFFSET 0.000000 0.000000 0.000000
								}
							}
						}
					}
				}
				JOINT RightShoulder
				{
					OFFSET -8.175920 11.883285 -3.861528
					CHANNELS 3 Zrotation Yrotation Xrotation
					JOINT RightArm
					{
						OFFSET -9.601238 3.255117 -0.914307
						CHANNELS 3 Zrotation Yrotation Xrotation
						JOINT RightForeArm
						{
							OFFSET -25.374195 -1.332924 -2.140099
							CHANNELS 3 Zrotation Yrotation Xrotation
							JOINT RightHand
							{
								OFFSET -25.529810 0.777228 -0.555919
								CHANNELS 3 Zrotation Yrotation Xrotation
								End Site
								{
									OFFSET 0.000000 0.000000 0.000000
								}
							}
						}
					}
				}
			}
		}
	}
}
MOTION
Frames: 6
Frame Time: 0.033333
19.427534 17.012428 90.285233 -120.915751 3.415688 82.475354 21.069984 7.489282 1.258365 -5.023569 6.686792 19.856796 0.440618 6.494846 -21.604674 nan nan nan -14.229780 -11.022931 -4.232892 3.479855 -11.025578 9.880563 8.241828 -3.245491 -5.303771 nan nan nan -4.665666 2.026370 5.564369 7.331984 -5.634276 6.448691 3.687004 -1.040102 -2.168473 3.603824 -14.934742 2.345126 0.442228 -22.900705 15.663333 -11.785194 -11.180380 0.540241 -60.421910 -40.705944 23.593116 -169.208065 -77.997452 -159.015239 -3.837657 -18.517739 -25.272595 17.449004 5.507335 -1.580070 38.500935 16.757466 0.782796 -73.189024 52.917465 -50.659177 7.862544 7.392707 -0.839936 
19.366945 16.872293 90.262169 -120.748984 3.437662 82.357592 21.039508 7.465639 1.159214 -5.159996 6.546236 20.089652 0.697018 6.521388 -21.803076 nan nan nan -14.361982 -11.046410 -4.105246 3.453118 -11.117382 9.935404 8.420471 -3.268552 -5.224581 nan nan nan -4.763800 2.173413 5.781797 7.314615 -5.568216 6.344316 3.679148 -0.930637 -2.140732 3.570631 -14.851355 2.488453 0.479360 -22.938106 16.310084 -11.605776 -11.667997 0.502206 -60.528500 -41.376333 23.735774 -170.484788 -78.164501 -157.831127 -3.605915 -18.510059 -25.127910 17.529334 5.660825 -1.419274 38.536296 16.558153 0.686847 -72.343971 52.245217 -50.002919 7.863619 7.469761 -0.863307 
19.310816 16.711851 90.228615 -120.570109 3.440430 82.316029 20.974723 7.407549 0.964423 -5.273826 6.412381 20.386744 0.832017 6.592817 -21.958888 nan nan nan -14.546180 -11.138579 -4.112116 3.448773 -11.275990 10.113266 8.640174 -3.250629 -5.121291 nan nan nan -4.838263 2.228149 5.982599 7.262004 -5.576736 6.182419 3.598336 -0.744200 -2.095687 3.549979 -14.740867 2.730617 0.592726 -23.106681 16.930020 -11.326129 -12.000766 0.393330 -60.791113 -41.972405 24.001515 -171.753683 -78.269062 -156.742008 -3.441191 -18.304262 -25.214004 17.642357 5.784239 -1.263480 38.714035 16.405967 0.658093 -71.600749 51.606446 -49.527617 7.665490 7.411625 -1.020340 
19.279835 16.551811 90.204887 -120.421813 3.450520 82.276020 20.916422 7.313755 0.777367 -5.301006 6.397851 20.728357 0.710991 6.571740 -22.041296 nan nan nan -14.717686 -11.294994 -4.192405 3.405304 -11.568612 10.386155 8.912079 -3.081540 -4.956437 nan nan nan -4.893177 2.270394 6.201762 7.205134 -5.664289 5.967151 3.481442 -0.525022 -1.992692 3.593427 -14.414104 2.927945 0.727055 -23.293700 17.614247 -11.042628 -12.327062 0.268751 -60.942704 -42.572264 24.218224 -173.142603 -78.398872 -155.411035 -3.434978 -18.292891 -24.866230 17.782793 5.903451 -1.178938 38.939195 16.327226 0.558813 -70.717996 51.167894 -48.599784 8.372727 7.304826 -1.039822 
19.265064 16.401030 90.197212 -120.345552 3.500546 82.216914 20.938657 7.278424 0.685993 -5.352093 6.398779 20.950963 0.626051 6.466604 -22.135790 nan nan nan -14.829733 -11.414101 -4.285646 3.350976 -11.861714 10.657972 9.186349 -2.910668 -4.802714 nan nan nan -4.984063 2.406071 6.389506 7.221292 -5.645833 5.834625 3.480486 -0.424788 -1.887825 3.667420 -14.087523 3.078302 0.800457 -23.393883 18.214553 -10.889662 -12.692020 0.066343 -61.016763 -43.174169 24.409742 -174.391231 -78.570387 -154.126070 -3.441377 -18.449595 -24.317287 17.887958 6.027255 -1.141332 39.027642 16.237503 0.437323 -69.930805 50.739788 -47.804105 9.240358 7.299132 -1.212438 
19.265368 16.266577 90.196609 -120.292247 3.591094 82.133261 21.024840 7.320084 0.657870 -5.418061 6.330037 21.057589 0.635656 6.408977 -22.193847 nan nan nan -14.900118 -11.496639 -4.320772 3.336948 -12.051636 10.862659 9.380892 -2.800556 -4.628100 nan nan nan -5.100111 2.630149 6.628279 7.281113 -5.537955 5.722487 3.573405 -0.421560 -1.845829 3.710762 -13.872742 3.258478 0.899694 -23.562296 18.798682 -10.701571 -13.106052 -0.159131 -61.126315 -43.733014 24.584518 -175.393250 -78.737362 -153.131762 -3.209201 -18.415900 -23.975712 17.898286 6.131897 -1.099154 39.101853 16.123724 0.328782 -69.230059 50.263015 -47.202024 9.225335 7.318444 -1.322772 
